<?xml version="1.0" standalone="no"?>
<!DOCTYPE svg PUBLIC "-//W3C//DTD SVG 20010904//EN"
 "http://www.w3.org/TR/2001/REC-SVG-20010904/DTD/svg10.dtd">
<svg version="1.0" xmlns="http://www.w3.org/2000/svg"
 width="221.000000pt" height="228.000000pt" viewBox="0 0 221.000000 228.000000"
 preserveAspectRatio="xMidYMid meet">

<g transform="translate(0.000000,228.000000) scale(0.100000,-0.100000)"
fill="#000000" stroke="none">
<path d="M1325 2264 c-110 -18 -231 -65 -313 -121 -55 -38 -145 -126 -184
-179 -28 -40 -31 -41 -63 -31 -44 13 -93 -14 -119 -67 -16 -33 -17 -43 -7 -78
l12 -40 -213 -326 -214 -327 -44 -5 c-25 -3 -52 -9 -61 -15 -50 -32 -64 -113
-28 -159 l20 -26 -24 -32 c-75 -101 -97 -217 -55 -298 48 -93 163 -118 232
-51 46 45 69 120 64 215 -3 70 -1 76 20 88 37 19 54 63 50 124 l-3 54 210 325
c209 323 210 324 245 325 99 1 155 116 89 186 -19 20 -19 21 9 60 116 160 321
254 523 241 279 -18 491 -193 571 -472 19 -68 23 -103 22 -230 -1 -181 -19
-260 -94 -410 -108 -217 -277 -364 -476 -415 -100 -26 -134 -26 -134 -1 0 36
-84 45 -93 10 -7 -25 -22 -22 -125 27 -95 46 -183 128 -222 207 -86 176 -51
399 87 547 79 85 141 113 263 118 80 3 105 0 155 -18 151 -56 240 -234 206
-415 -15 -81 -61 -175 -108 -222 -41 -41 -89 -70 -99 -60 -3 3 9 50 28 104 42
124 46 243 11 308 -44 83 -114 125 -206 125 -102 0 -188 -63 -240 -177 -34
-74 -31 -189 6 -265 39 -79 104 -143 185 -181 58 -28 78 -32 147 -32 68 0 89
5 138 29 245 119 332 504 168 738 -94 134 -275 207 -449 179 -194 -30 -348
-163 -419 -361 -39 -110 -44 -277 -12 -386 43 -147 152 -270 302 -344 119 -58
191 -74 312 -67 269 13 514 180 670 453 99 173 140 349 132 559 -6 158 -29
254 -93 385 -40 81 -60 109 -138 185 -76 76 -106 98 -186 137 -52 26 -122 54
-155 63 -61 16 -245 27 -300 19z m-3 -1046 c77 -29 88 -135 32 -311 -20 -61
-40 -116 -44 -120 -11 -12 -99 28 -133 61 -42 40 -76 103 -83 153 -14 102 52
210 140 229 32 7 41 6 88 -12z m-1101 -440 c13 -48 7 -124 -13 -166 -16 -32
-58 -41 -78 -17 -31 38 -8 146 43 203 28 31 35 28 48 -20z"/>
<path d="M1224 354 c-9 -49 2 -230 17 -276 16 -48 41 -72 68 -63 28 8 35 38
20 83 -8 22 -14 86 -14 159 l0 123 -27 0 c-14 0 -33 3 -42 6 -11 4 -17 -4 -22
-32z"/>
</g>
</svg>
